<svg xmlns="http://www.w3.org/2000/svg" viewBox="0 0 1024 1024" width="1024" height="1024">
  <!-- Background with gradient -->
  <defs>
    <linearGradient id="bgGradient" x1="0%" y1="0%" x2="0%" y2="100%">
      <stop offset="0%" stop-color="#005cb9" />
      <stop offset="100%" stop-color="#0077e6" />
    </linearGradient>
    
    <!-- Animation for the route line -->
    <linearGradient id="routeGradient" x1="0%" y1="0%" x2="100%" y2="0%">
      <stop offset="0%" stop-color="#ff9800">
        <animate attributeName="offset" from="-1" to="1" dur="2s" repeatCount="indefinite" />
      </stop>
      <stop offset="50%" stop-color="#ffffff">
        <animate attributeName="offset" from="-0.5" to="1.5" dur="2s" repeatCount="indefinite" />
      </stop>
      <stop offset="100%" stop-color="#ff9800">
        <animate attributeName="offset" from="0" to="2" dur="2s" repeatCount="indefinite" />
      </stop>
    </linearGradient>
  </defs>
  
  <!-- Background -->
  <rect x="0" y="0" width="1024" height="1024" fill="url(#bgGradient)" />
  
  <!-- Map background elements -->
  <g opacity="0.1">
    <!-- Simplified map grid -->
    <path d="M100,100 L900,100" stroke="#ffffff" stroke-width="2" />
    <path d="M100,200 L900,200" stroke="#ffffff" stroke-width="1" />
    <path d="M100,300 L900,300" stroke="#ffffff" stroke-width="2" />
    <path d="M100,400 L900,400" stroke="#ffffff" stroke-width="1" />
    <path d="M100,500 L900,500" stroke="#ffffff" stroke-width="2" />
    <path d="M100,600 L900,600" stroke="#ffffff" stroke-width="1" />
    <path d="M100,700 L900,700" stroke="#ffffff" stroke-width="2" />
    <path d="M100,800 L900,800" stroke="#ffffff" stroke-width="1" />
    <path d="M100,900 L900,900" stroke="#ffffff" stroke-width="2" />
    
    <path d="M100,100 L100,900" stroke="#ffffff" stroke-width="2" />
    <path d="M200,100 L200,900" stroke="#ffffff" stroke-width="1" />
    <path d="M300,100 L300,900" stroke="#ffffff" stroke-width="2" />
    <path d="M400,100 L400,900" stroke="#ffffff" stroke-width="1" />
    <path d="M500,100 L500,900" stroke="#ffffff" stroke-width="2" />
    <path d="M600,100 L600,900" stroke="#ffffff" stroke-width="1" />
    <path d="M700,100 L700,900" stroke="#ffffff" stroke-width="2" />
    <path d="M800,100 L800,900" stroke="#ffffff" stroke-width="1" />
    <path d="M900,100 L900,900" stroke="#ffffff" stroke-width="2" />
  </g>
  
  <!-- Route path -->
  <path d="M200,700 C300,650 350,500 450,450 S600,400 700,300" 
        stroke="url(#routeGradient)" stroke-width="8" fill="none" stroke-linecap="round" />
  
  <!-- Bus stations along path -->
  <circle cx="200" cy="700" r="12" fill="#ffffff" />
  <circle cx="450" cy="450" r="12" fill="#ffffff" />
  <circle cx="700" cy="300" r="12" fill="#ffffff" />
  
  <!-- Bus icon -->
  <g transform="translate(400, 330)">
    <!-- Shadow -->
    <ellipse cx="100" cy="190" rx="90" ry="15" fill="#00000033" />
    
    <!-- Bus body -->
    <rect x="20" y="40" width="210" height="140" rx="15" ry="15" fill="#ffffff" />
    
    <!-- Windows -->
    <rect x="35" y="60" width="30" height="25" rx="3" ry="3" fill="#0066cc" opacity="0.7" />
    <rect x="75" y="60" width="30" height="25" rx="3" ry="3" fill="#0066cc" opacity="0.7" />
    <rect x="115" y="60" width="30" height="25" rx="3" ry="3" fill="#0066cc" opacity="0.7" />
    <rect x="155" y="60" width="30" height="25" rx="3" ry="3" fill="#0066cc" opacity="0.7" />
    <rect x="195" y="60" width="20" height="25" rx="3" ry="3" fill="#0066cc" opacity="0.7" />
    
    <!-- Door -->
    <rect x="30" y="100" width="20" height="60" rx="2" ry="2" fill="#0066cc" opacity="0.5" />
    
    <!-- Wheels -->
    <circle cx="65" cy="180" r="20" fill="#333333" />
    <circle cx="65" cy="180" r="10" fill="#666666" />
    <circle cx="185" cy="180" r="20" fill="#333333" />
    <circle cx="185" cy="180" r="10" fill="#666666" />
    
    <!-- Front lights -->
    <rect x="230" y="100" width="5" height="15" rx="2" ry="2" fill="#ffcc00" />
    <rect x="230" y="125" width="5" height="15" rx="2" ry="2" fill="#ffcc00" />
    
    <!-- Roof line -->
    <path d="M20,40 Q125,10 230,40" fill="none" stroke="#ffffff" stroke-width="3" />
    
    <!-- Animation for the bus -->
    <animateTransform 
      attributeName="transform"
      type="translate"
      from="0 0"
      to="0 -10"
      dur="1s"
      repeatCount="indefinite"
      additive="sum"
      values="0 0; 0 -10; 0 0"
      keyTimes="0; 0.5; 1" />
  </g>
  
  <!-- GPS Location pulse -->
  <g transform="translate(700, 300)">
    <circle cx="0" cy="0" r="5" fill="#ff5722" />
    <circle cx="0" cy="0" r="10" fill="none" stroke="#ff5722" stroke-width="2">
      <animate attributeName="r" from="10" to="30" dur="1.5s" repeatCount="indefinite" />
      <animate attributeName="opacity" from="1" to="0" dur="1.5s" repeatCount="indefinite" />
    </circle>
    <circle cx="0" cy="0" r="10" fill="none" stroke="#ff5722" stroke-width="2">
      <animate attributeName="r" from="10" to="30" dur="1.5s" repeatCount="indefinite" begin="0.5s" />
      <animate attributeName="opacity" from="1" to="0" dur="1.5s" repeatCount="indefinite" begin="0.5s" />
    </circle>
  </g>
  
  <!-- Title -->
  <g transform="translate(512, 720)">
    <text x="0" y="0" font-family="Arial, sans-serif" font-size="60" font-weight="bold" fill="#ffffff" text-anchor="middle">MAHARASHTRA</text>
    <text x="0" y="70" font-family="Arial, sans-serif" font-size="50" font-weight="bold" fill="#ffffff" text-anchor="middle">BUS TRACKER</text>
  </g>
  
  <!-- Loading indicator -->
  <g transform="translate(512, 850)">
    <text x="0" y="0" font-family="Arial, sans-serif" font-size="24" fill="#ffffff" text-anchor="middle">
      Loading
      <animate attributeName="opacity" values="1;0.3;1" dur="1.5s" repeatCount="indefinite" />
    </text>
    <rect x="-50" y="20" width="100" height="10" rx="5" ry="5" fill="#ffffff" opacity="0.2" />
    <rect x="-50" y="20" width="100" height="10" rx="5" ry="5" fill="#ffffff">
      <animate attributeName="width" values="0;100" dur="2s" repeatCount="indefinite" />
      <animate attributeName="x" values="-50;-50" dur="2s" repeatCount="indefinite" />
    </rect>
  </g>
</svg>
